<svg width="62" height="75" viewBox="0 0 62 75" fill="none" xmlns="http://www.w3.org/2000/svg">
<path fill-rule="evenodd" clip-rule="evenodd" d="M3.8147e-06 25L0 0C9.27266 5.8352 23.053 5.28285 40.3518 4.18979C52.1883 3.44187 62 12.8352 62 24.6953L62 25L62 28L62 31C57.6269 29.4218 52.9674 28.4835 47.9807 28H26.9942C26.9942 28 26.9941 28 26.9941 28H41L41.0155 28H43V28.094C53.6599 29.1011 62 38.0766 62 49L62 51V52L62 75C52.682 69.974 38.8123 70.4766 21.3945 71.4225C10.015 72.0405 0.555092 63.2567 0.0235553 52H9.31599e-06L7.01421e-06 51.0117L3.8147e-06 51L0 48C4.87521 49.8766 11.2159 50.7122 18.8236 50.8886C8.24828 49.7997 0 40.8631 0 30V28L1.0269 28H8.89344e-06L7.94262e-06 25.0064C5.19086e-06 25.0043 3.8146e-06 25.0021 3.8147e-06 25Z" fill="url(#paint0_linear_3_80)"/>
<defs>
<linearGradient id="paint0_linear_3_80" x1="-6.20954e-07" y1="8" x2="62" y2="80" gradientUnits="userSpaceOnUse">
<stop offset="0.42" stop-color="#42A3FF"/>
<stop offset="1" stop-color="#FF63F5"/>
</linearGradient>
</defs>
</svg>
